<svg version="1.1" id="Layer_1" xmlns="http://www.w3.org/2000/svg" xmlns:xlink="http://www.w3.org/1999/xlink" x="0px" y="0px"
	 width="100%" viewBox="0 0 597 564" enable-background="new 0 0 597 564" xml:space="preserve">
<path fill="#E3D0C9" opacity="1.000000" stroke="none" 
	d="
M598.000000,199.000000 
	C598.000000,321.333344 598.000000,443.166656 598.000000,565.000000 
	C399.000000,565.000000 200.000000,565.000000 1.000000,565.000000 
	C1.000000,377.000000 1.000000,189.000000 1.000000,1.000000 
	C200.000000,1.000000 399.000000,1.000000 598.000000,1.000000 
	C598.000000,66.833336 598.000000,132.666672 598.000000,199.000000 
M53.907955,521.641418 
	C54.264614,521.814148 54.621277,521.986877 55.543793,522.602600 
	C59.445969,522.735840 63.348103,522.983948 67.250328,522.985291 
	C134.061417,523.009094 200.872498,523.010681 267.683563,522.964294 
	C269.776093,522.962830 271.868225,522.397217 274.761261,521.907837 
	C275.850586,521.948669 276.939911,521.989441 278.221191,522.285278 
	C278.221191,522.285278 278.651489,522.340149 278.651489,522.340149 
	C278.651489,522.340149 278.971039,522.005493 279.819672,521.779663 
	C289.132385,521.229614 298.455353,520.814026 307.756042,520.105713 
	C343.904266,517.352905 378.803986,509.639618 411.676025,493.848816 
	C468.422791,466.589325 504.873779,421.813385 523.687256,362.471619 
	C538.323242,316.306549 540.007507,269.034546 530.389282,221.741562 
	C517.142883,156.608170 482.114746,106.324669 424.253143,72.845123 
	C411.448914,65.436417 397.448334,60.339275 382.125916,57.238621 
	C380.087219,56.826385 378.048523,56.414146 375.633667,55.724815 
	C375.327911,55.539974 375.033447,55.556477 374.318390,55.280396 
	C373.890472,55.239853 373.462555,55.199306 372.525757,54.920498 
	C372.155823,54.904652 371.785919,54.888802 370.945251,54.411259 
	C370.305359,54.327942 369.665466,54.244625 368.375275,53.937450 
	C367.481598,53.888599 366.587921,53.839752 365.111053,53.256832 
	C364.072083,53.164921 363.033112,53.073009 361.486572,52.650856 
	C360.916870,52.662369 360.347198,52.673882 359.330688,52.202934 
	C358.899689,52.183472 358.468719,52.164009 357.382416,51.919254 
	C356.483582,51.876095 355.584747,51.832935 354.083923,51.228397 
	C351.394867,50.842506 348.705841,50.456612 345.318390,49.829613 
	C343.865173,49.640350 342.411987,49.451088 340.152924,49.040909 
	C336.770844,48.693787 333.388763,48.346664 329.378357,47.702026 
	C328.237488,47.559574 327.096619,47.417122 325.125427,47.052692 
	C321.323029,46.698822 317.524811,46.289852 313.717468,46.001171 
	C301.150330,45.048306 288.579895,44.138916 275.420868,42.612076 
	C273.795044,42.408321 272.169312,42.027050 270.543427,42.026352 
	C200.474228,41.996323 130.405029,41.993999 60.335842,42.034420 
	C58.566418,42.035439 56.797283,42.552635 54.277031,43.115387 
	C53.941158,47.356113 53.605289,51.596844 53.259338,55.964867 
	C55.172722,56.064999 56.147606,56.170998 57.120674,56.156338 
	C59.742760,56.116821 62.364071,56.025856 65.863129,56.131927 
	C68.246864,56.089279 70.630600,56.046627 73.676422,56.280945 
	C75.118874,56.360027 76.561333,56.439106 78.732941,56.768772 
	C79.500046,56.764706 80.267143,56.760643 81.835091,56.948101 
	C84.557335,57.318153 87.279579,57.688202 90.610657,58.447155 
	C105.536682,62.415833 115.581497,71.280762 118.739113,86.843124 
	C120.027893,93.194901 120.947128,99.621658 121.910301,106.918793 
	C122.220398,123.382774 122.782776,139.846512 122.798676,156.310776 
	C122.886330,247.087708 122.842163,337.864777 122.836670,428.641785 
	C122.836342,434.130615 122.779739,439.619476 122.414993,445.865967 
	C121.614922,454.313629 121.206459,462.821167 119.925720,471.195312 
	C117.849831,484.768433 113.181038,497.015137 99.285721,503.977936 
	C98.948730,504.265442 98.611732,504.552948 97.624329,504.802826 
	C96.406006,505.260773 95.187691,505.718719 93.330757,506.149902 
	C92.991348,506.380493 92.651947,506.611084 91.842369,506.750183 
	C91.516457,506.793793 91.226883,506.920471 90.135956,507.105621 
	C78.126640,508.005310 66.117332,508.904999 53.829044,509.825562 
	C53.829044,513.225525 53.829044,517.137207 53.907955,521.641418 
z"/>
<path fill="#1F234F" opacity="1.000000" stroke="none" 
	d="
M371.415985,54.872952 
	C371.785919,54.888802 372.155823,54.904652 373.029785,55.225601 
	C373.939331,55.611912 374.344788,55.693115 374.750275,55.774315 
	C375.033447,55.556477 375.327911,55.539974 375.945190,56.242752 
	C378.406738,57.099705 380.556793,57.438725 382.706848,57.777740 
	C397.448334,60.339275 411.448914,65.436417 424.253143,72.845123 
	C482.114746,106.324669 517.142883,156.608170 530.389282,221.741562 
	C540.007507,269.034546 538.323242,316.306549 523.687256,362.471619 
	C504.873779,421.813385 468.422791,466.589325 411.676025,493.848816 
	C378.803986,509.639618 343.904266,517.352905 307.756042,520.105713 
	C298.455353,520.814026 289.132385,521.229614 279.158142,521.824463 
	C278.496613,521.869324 278.029236,522.030273 278.029236,522.030273 
	C276.939911,521.989441 275.850586,521.948669 273.968506,521.928345 
	C272.113251,521.896362 271.050751,521.843933 269.638062,521.576050 
	C267.304474,521.239563 265.321198,521.013428 263.337830,521.012756 
	C194.228546,520.990417 125.119263,520.989441 55.938553,520.581055 
	C55.629311,519.383118 55.293903,518.604370 55.169006,517.793274 
	C54.095730,510.822968 54.796085,510.004547 61.752789,509.999573 
	C68.053429,509.995056 74.377174,510.319183 80.645630,509.869629 
	C84.135834,509.619293 87.533989,508.085510 90.973633,507.130188 
	C91.226883,506.920471 91.516457,506.793793 92.382332,506.759644 
	C93.271317,506.571594 93.620338,506.374115 93.969368,506.176666 
	C95.187691,505.718719 96.406006,505.260773 98.277115,504.754944 
	C99.274902,504.441406 99.619896,504.175720 99.964897,503.910065 
	C113.181038,497.015137 117.849831,484.768433 119.925720,471.195312 
	C121.206459,462.821167 121.614922,454.313629 122.885376,445.179504 
	C123.570145,443.036102 123.971840,441.579193 123.972229,440.122162 
	C124.000916,331.268860 124.011063,222.415512 123.915352,113.562286 
	C123.913139,111.045738 122.688782,108.530273 122.034485,106.014297 
	C120.947128,99.621658 120.027893,93.194901 118.739113,86.843124 
	C115.581497,71.280762 105.536682,62.415833 90.067749,57.971848 
	C86.694649,57.249886 83.864449,57.003231 81.034248,56.756577 
	C80.267143,56.760643 79.500046,56.764706 78.231415,56.349983 
	C76.158035,55.955452 74.586182,55.979717 73.014336,56.003975 
	C70.630600,56.046627 68.246864,56.089279 65.122780,55.798523 
	C62.580101,55.237392 60.762215,55.093327 58.979172,54.761856 
	C56.458466,54.293251 54.912430,53.174938 54.927162,50.117924 
	C54.953148,44.724468 55.458443,44.004910 61.318783,44.004105 
	C123.436249,43.995560 185.553711,44.007763 247.671158,43.968929 
	C249.784821,43.967609 251.898178,43.489895 254.473679,43.162006 
	C260.622925,43.300682 266.310211,43.511581 272.212280,44.016121 
	C273.364868,44.539219 274.293488,44.916622 275.241852,44.975559 
	C286.431885,45.670975 297.621124,46.395420 308.818726,46.947102 
	C314.522583,47.228115 320.242889,47.176128 325.955750,47.274666 
	C327.096619,47.417122 328.237488,47.559574 329.974823,48.101204 
	C334.033783,48.754196 337.496277,49.008011 340.958771,49.261826 
	C342.411987,49.451088 343.865173,49.640350 345.935852,50.222412 
	C349.264160,51.006733 351.975037,51.398258 354.685913,51.789780 
	C355.584747,51.832935 356.483582,51.876095 357.963531,52.216179 
	C358.955597,52.570534 359.366547,52.627964 359.777496,52.685394 
	C360.347198,52.673882 360.916870,52.662369 362.037659,53.071999 
	C363.623932,53.592396 364.659088,53.691650 365.694244,53.790905 
	C366.587921,53.839752 367.481598,53.888599 368.951080,54.252701 
	C370.156586,54.669621 370.786285,54.771286 371.415985,54.872952 
M195.740417,78.586937 
	C195.413101,78.486465 195.169205,78.601799 194.429184,79.218018 
	C194.000000,79.250946 193.570816,79.283875 192.718307,78.787132 
	C191.848984,79.267509 190.979660,79.747887 190.152542,80.835693 
	C190.083191,81.232086 190.013840,81.628479 189.441513,82.677483 
	C189.293701,84.154243 189.016693,85.630974 189.016464,87.107758 
	C188.996841,218.655838 188.994598,350.203918 189.040512,481.752014 
	C189.041122,483.494598 189.670990,485.237030 190.588165,487.497833 
	C199.409546,489.202179 208.213608,491.002655 217.055359,492.593750 
	C250.001266,498.522278 282.918915,499.282654 315.794128,491.967285 
	C354.081726,483.447540 385.415649,463.887817 408.589233,432.205048 
	C433.660919,397.927216 448.644501,359.506042 453.289886,317.181488 
	C458.021667,274.069244 455.184692,231.752335 440.090271,190.698975 
	C427.406616,156.202393 406.892853,127.182274 377.542053,105.170212 
	C338.633087,75.989868 293.838470,66.887177 246.192734,70.805588 
	C229.346832,72.191010 212.705002,76.057831 195.740417,78.586937 
z"/>
<path fill="#212242" opacity="1.000000" stroke="none" 
	d="
M121.972397,106.466545 
	C122.688782,108.530273 123.913139,111.045738 123.915352,113.562286 
	C124.011063,222.415512 124.000916,331.268860 123.972229,440.122162 
	C123.971840,441.579193 123.570145,443.036102 123.052536,444.800690 
	C122.779739,439.619476 122.836342,434.130615 122.836670,428.641785 
	C122.842163,337.864777 122.886330,247.087708 122.798676,156.310776 
	C122.782776,139.846512 122.220398,123.382774 121.972397,106.466545 
z"/>
<path fill="#262544" opacity="1.000000" stroke="none" 
	d="
M254.011688,43.234234 
	C251.898178,43.489895 249.784821,43.967609 247.671158,43.968929 
	C185.553711,44.007763 123.436249,43.995560 61.318783,44.004105 
	C55.458443,44.004910 54.953148,44.724468 54.927162,50.117924 
	C54.912430,53.174938 56.458466,54.293251 58.979172,54.761856 
	C60.762215,55.093327 62.580101,55.237392 64.684059,55.710217 
	C62.364071,56.025856 59.742760,56.116821 57.120674,56.156338 
	C56.147606,56.170998 55.172722,56.064999 53.259338,55.964867 
	C53.605289,51.596844 53.941158,47.356113 55.114773,43.040985 
	C118.984222,42.974548 182.015930,42.979195 245.047638,43.000778 
	C248.035690,43.001804 251.023666,43.152985 254.011688,43.234234 
z"/>
<path fill="#DAD1DA" opacity="1.000000" stroke="none" 
	d="
M269.988281,521.791504 
	C271.050751,521.843933 272.113251,521.896362 273.568115,522.021729 
	C271.868225,522.397217 269.776093,522.962830 267.683563,522.964294 
	C200.872498,523.010681 134.061417,523.009094 67.250328,522.985291 
	C63.348103,522.983948 59.445969,522.735840 55.727196,522.308350 
	C124.945862,522.009644 193.981125,522.007324 263.016388,521.992004 
	C265.340363,521.991516 267.664307,521.861267 269.988281,521.791504 
z"/>
<path fill="#DCD1D4" opacity="1.000000" stroke="none" 
	d="
M254.473679,43.162010 
	C251.023666,43.152985 248.035690,43.001804 245.047638,43.000778 
	C182.015930,42.979195 118.984222,42.974548 55.490265,42.897842 
	C56.797283,42.552635 58.566418,42.035439 60.335842,42.034420 
	C130.405029,41.993999 200.474228,41.996323 270.543427,42.026352 
	C272.169312,42.027050 273.795044,42.408321 275.318481,43.007710 
	C274.143188,43.509720 273.070343,43.616100 271.997467,43.722481 
	C266.310211,43.511581 260.622925,43.300682 254.473679,43.162010 
z"/>
<path fill="#25233A" opacity="1.000000" stroke="none" 
	d="
M269.638062,521.575989 
	C267.664307,521.861267 265.340363,521.991516 263.016388,521.992004 
	C193.981125,522.007324 124.945862,522.009644 55.444267,522.086792 
	C54.621277,521.986877 54.264614,521.814148 54.231842,521.331543 
	C55.040482,521.009644 55.525230,520.997498 56.009979,520.985352 
	C125.119263,520.989441 194.228546,520.990417 263.337830,521.012756 
	C265.321198,521.013428 267.304474,521.239563 269.638062,521.575989 
z"/>
<path fill="#262544" opacity="1.000000" stroke="none" 
	d="
M272.212280,44.016121 
	C273.070343,43.616100 274.143188,43.509720 275.613403,43.308090 
	C288.579895,44.138916 301.150330,45.048306 313.717468,46.001171 
	C317.524811,46.289852 321.323029,46.698822 325.540588,47.163681 
	C320.242889,47.176128 314.522583,47.228115 308.818726,46.947102 
	C297.621124,46.395420 286.431885,45.670975 275.241852,44.975559 
	C274.293488,44.916622 273.364868,44.539219 272.212280,44.016121 
z"/>
<path fill="#272744" opacity="1.000000" stroke="none" 
	d="
M55.938553,520.581055 
	C55.525230,520.997498 55.040482,521.009644 54.192387,521.035278 
	C53.829044,517.137207 53.829044,513.225525 53.829044,509.825562 
	C66.117332,508.904999 78.126640,508.005310 90.554794,507.117920 
	C87.533989,508.085510 84.135834,509.619293 80.645630,509.869629 
	C74.377174,510.319183 68.053429,509.995056 61.752789,509.999573 
	C54.796085,510.004547 54.095730,510.822968 55.169006,517.793274 
	C55.293903,518.604370 55.629311,519.383118 55.938553,520.581055 
z"/>
<path fill="#262544" opacity="1.000000" stroke="none" 
	d="
M340.555847,49.151367 
	C337.496277,49.008011 334.033783,48.754196 330.289001,48.249962 
	C333.388763,48.346664 336.770844,48.693787 340.555847,49.151367 
z"/>
<path fill="#262544" opacity="1.000000" stroke="none" 
	d="
M81.434669,56.852341 
	C83.864449,57.003231 86.694649,57.249886 89.763336,57.777393 
	C87.279579,57.688202 84.557335,57.318153 81.434669,56.852341 
z"/>
<path fill="#262544" opacity="1.000000" stroke="none" 
	d="
M354.384918,51.509087 
	C351.975037,51.398258 349.264160,51.006733 346.285034,50.342964 
	C348.705841,50.456612 351.394867,50.842506 354.384918,51.509087 
z"/>
<path fill="#262544" opacity="1.000000" stroke="none" 
	d="
M382.416382,57.508179 
	C380.556793,57.438725 378.406738,57.099705 376.133240,56.381294 
	C378.048523,56.414146 380.087219,56.826385 382.416382,57.508179 
z"/>
<path fill="#262544" opacity="1.000000" stroke="none" 
	d="
M73.345383,56.142464 
	C74.586182,55.979717 76.158035,55.955452 77.866837,56.224686 
	C76.561333,56.439106 75.118874,56.360027 73.345383,56.142464 
z"/>
<path fill="#262544" opacity="1.000000" stroke="none" 
	d="
M365.402649,53.523869 
	C364.659088,53.691650 363.623932,53.592396 362.291443,53.237118 
	C363.033112,53.073009 364.072083,53.164921 365.402649,53.523869 
z"/>
<path fill="#262544" opacity="1.000000" stroke="none" 
	d="
M371.180603,54.642105 
	C370.786285,54.771286 370.156586,54.669621 369.276245,54.364632 
	C369.665466,54.244625 370.305359,54.327942 371.180603,54.642105 
z"/>
<path fill="#262544" opacity="1.000000" stroke="none" 
	d="
M374.534332,55.527355 
	C374.344788,55.693115 373.939331,55.611912 373.284241,55.344734 
	C373.462555,55.199306 373.890472,55.239853 374.534332,55.527355 
z"/>
<path fill="#272744" opacity="1.000000" stroke="none" 
	d="
M99.625305,503.944000 
	C99.619896,504.175720 99.274902,504.441406 98.602325,504.773773 
	C98.611732,504.552948 98.948730,504.265442 99.625305,503.944000 
z"/>
<path fill="#272744" opacity="1.000000" stroke="none" 
	d="
M93.650055,506.163269 
	C93.620338,506.374115 93.271317,506.571594 92.617416,506.805359 
	C92.651947,506.611084 92.991348,506.380493 93.650055,506.163269 
z"/>
<path fill="#262544" opacity="1.000000" stroke="none" 
	d="
M359.554077,52.444164 
	C359.366547,52.627964 358.955597,52.570534 358.291199,52.328823 
	C358.468719,52.164009 358.899689,52.183472 359.554077,52.444164 
z"/>
<path fill="#DAD1DA" opacity="1.000000" stroke="none" 
	d="
M278.125214,522.157776 
	C278.029236,522.030273 278.496613,521.869324 278.733826,521.937378 
	C278.971039,522.005493 278.651489,522.340149 278.651489,522.340149 
	C278.651489,522.340149 278.221191,522.285278 278.125214,522.157776 
z"/>
<path fill="#E3D0C9" opacity="1.000000" stroke="none" 
	d="
M189.944504,82.024872 
	C190.013840,81.628479 190.083191,81.232086 190.456268,80.477814 
	C191.553879,79.852219 192.347763,79.584511 193.141632,79.316803 
	C193.570816,79.283875 194.000000,79.250946 194.969177,79.107666 
	C195.662796,78.928802 195.816391,78.860291 195.970001,78.791771 
	C212.705002,76.057831 229.346832,72.191010 246.192734,70.805588 
	C293.838470,66.887177 338.633087,75.989868 377.542053,105.170212 
	C406.892853,127.182274 427.406616,156.202393 440.090271,190.698975 
	C455.184692,231.752335 458.021667,274.069244 453.289886,317.181488 
	C448.644501,359.506042 433.660919,397.927216 408.589233,432.205048 
	C385.415649,463.887817 354.081726,483.447540 315.794128,491.967285 
	C282.918915,499.282654 250.001266,498.522278 217.055359,492.593750 
	C208.213608,491.002655 199.409546,489.202179 190.362198,486.776367 
	C190.143402,352.704224 190.151184,219.353577 190.148911,86.002922 
	C190.148880,84.676903 190.015579,83.350891 189.944504,82.024872 
z"/>
<path fill="#222341" opacity="1.000000" stroke="none" 
	d="
M189.693008,82.351181 
	C190.015579,83.350891 190.148880,84.676903 190.148911,86.002922 
	C190.151184,219.353577 190.143402,352.704224 190.071701,486.517212 
	C189.670990,485.237030 189.041122,483.494598 189.040512,481.752014 
	C188.994598,350.203918 188.996841,218.655838 189.016464,87.107758 
	C189.016693,85.630974 189.293701,84.154243 189.693008,82.351181 
z"/>
<path fill="#222341" opacity="1.000000" stroke="none" 
	d="
M192.929962,79.051971 
	C192.347763,79.584511 191.553879,79.852219 190.435181,80.174088 
	C190.979660,79.747887 191.848984,79.267509 192.929962,79.051971 
z"/>
<path fill="#222341" opacity="1.000000" stroke="none" 
	d="
M195.855209,78.689354 
	C195.816391,78.860291 195.662796,78.928802 195.258957,78.965134 
	C195.169205,78.601799 195.413101,78.486465 195.855209,78.689354 
z"/>
</svg>